<svg version="1.1" viewBox="0.0 0.0 486.98425196850394 205.11811023622047" fill="none" stroke="none" stroke-linecap="square" stroke-miterlimit="10" xmlns:xlink="http://www.w3.org/1999/xlink" xmlns="http://www.w3.org/2000/svg"><clipPath id="p.0"><path d="m0 0l486.98425 0l0 205.1181l-486.98425 0l0 -205.1181z" clip-rule="nonzero"/></clipPath><g clip-path="url(#p.0)"><path fill="#000000" fill-opacity="0.0" d="m0 0l486.98425 0l0 205.1181l-486.98425 0z" fill-rule="evenodd"/><path fill="#000000" fill-opacity="0.0" d="m10.230971 -66.826775l160.44095 0l0 275.84253l-160.44095 0z" fill-rule="evenodd"/><path fill="#073763" d="m15.824721 190.50136q-2.921875 0 -4.921875 -0.9375q-2.0 -0.92189026 -2.0 -3.5937653q0 -2.65625 1.734375 -3.859375q1.734375 -1.203125 4.125 -2.0q7.999999 -2.140625 13.734374 -6.671875q5.734377 -4.53125 8.406252 -10.390625q6.390625 -14.671875 12.25 -29.0625q5.875 -14.406258 11.46875 -28.671883q5.609375 -14.265625 11.078125 -28.796875q5.46875 -14.531246 10.796875 -29.203121q4.53125 -12.265625 5.59375 -17.46875q1.078125 -5.203125 1.875 -5.46875q5.328125 -1.328125 9.859375 -2.53125q4.53125 -1.203125 10.140625 -3.0625q5.0625 -1.875 8.921875 -4.671876q3.875 -2.796875 5.734375 -4.65625q1.34375 -0.8125 2.53125 -1.078125q1.203125 -0.265625 2.265625 1.875q1.078125 1.859375 1.734375 3.59375q0.671875 1.734375 1.203125 3.875001q5.34375 17.59375 11.0625 35.46875q5.734375 17.859371 11.59375 36.124996q5.875 18.265625 11.875 36.671875q6.0 18.390633 11.875 37.062508q1.328125 4.265625 4.390625 7.59375q3.078125 3.328125 7.34375 5.59375q4.265625 2.265625 9.59375 3.875q2.40625 0.796875 4.125 1.859375q1.734375 1.0625 1.734375 3.734375q0 1.875 -1.46875 2.9375q-1.453125 1.0625153 -3.59375 1.0625153q-5.59375 0 -13.734375 -0.265625q-8.125 -0.26564026 -16.265625 -0.53126526q-8.125 -0.265625 -14.265625 -0.265625q-5.328125 0 -13.0625 0.265625q-7.734375 0.265625 -15.734375 0.65626526q-8.0 0.40625 -13.859375 0.40625q-2.140625 0 -3.875 -1.0625153q-1.734375 -1.0625 -1.734375 -2.9375q0 -2.390625 1.734375 -3.859375q1.734375 -1.46875 4.140625 -2.0q10.125 -2.140625 14.921875 -5.59375q4.8125 -3.46875 2.671875 -11.203125q-1.328125 -5.34375 -2.796875 -10.40625q-1.46875 -5.0625 -2.8125 -10.265625q-1.328125 -5.203125 -2.65625 -10.265625q-0.53125 -2.140625 -1.328125 -3.328125q-0.796875 -1.2031326 -2.9375 -1.2031326l-46.390625 0q-2.140625 0 -3.078125 1.2031326q-0.921875 1.1875 -1.46875 3.328125q-1.0625 4.0 -2.265625 7.34375q-1.1875 3.328125 -2.265625 6.53125q-1.0625 3.1875 -2.140625 6.53125q-1.0625 3.328125 -2.125 7.328125q-2.390625 8.53125 0.796875 12.796875q3.203125 4.265625 15.734375 7.203125q5.875 1.328125 5.875 5.859375q0 1.875 -1.34375 2.8125q-1.328125 0.92189026 -4.265625 0.92189026q-8.796875 0 -15.46875 -0.40625q-6.65625 -0.39064026 -14.65625 -0.39064026q-7.734375 0 -14.812502 0.79689026q-7.0625 0.796875 -15.593749 0.796875zm64.53125 -78.12502l33.34375 0q4.0 0 4.0 -1.859375q0 -1.078125 -0.140625 -1.46875q-0.125 -0.40625 -0.40625 -1.46875l-17.0625 -58.937496q-0.796875 -2.65625 -1.59375 -2.65625q-0.53125 0 -1.609375 2.65625l-20.53125 58.937496q-0.53125 1.0625 -0.53125 2.125q0 1.34375 1.46875 2.015625q1.46875 0.65625 3.0625 0.65625z" fill-rule="nonzero"/><path fill="#000000" fill-opacity="0.0" d="m133.71391 -66.826775l160.44093 0l0 275.84253l-160.44093 0z" fill-rule="evenodd"/><path fill="#bf9000" d="m147.83891 190.50136q-3.453125 0 -5.59375 -0.671875q-2.125 -0.65626526 -2.125 -2.2500153q0 -3.203125 8.796875 -4.8125q10.125 -1.859375 14.796875 -6.125q4.671875 -4.265625 4.671875 -14.140625l0 -112.515625q0 -12.0 -3.078125 -18.40625q-3.0625 -6.40625 -13.1875 -8.265625q-4.546875 -0.796875 -6.6875 -2.125q-2.125 -1.34375 -2.125 -3.203125q0 -1.609375 2.125 -2.265626q2.140625 -0.671875 5.609375 -0.671875q7.203125 0 10.796875 0q3.609375 0 6.796875 0.140625q3.203125 0.125 8.546875 0.125q5.328125 0 10.796875 -0.390625q5.46875 -0.40625 10.265625 -0.796875q4.796875 -0.40625 8.53125 -0.40625q30.40625 0 48.9375 12.531251q18.531235 12.53125 18.531235 34.921875q0 16.265621 -6.40625 29.999996q-6.390625 13.734375 -19.593735 22.0q-13.203125 8.265625 -33.734375 8.265625q-5.859375 0 -8.9375 -1.734375q-3.0625 -1.734375 -3.0625 -3.328125q0 -1.0625 1.46875 -2.390625q1.46875 -1.34375 2.796875 -1.34375q1.328125 0 4.125 0.265625q2.8125 0.265625 8.140625 0.265625q16.0 0 24.125 -13.328125q8.140625 -13.328125 8.140625 -36.79687q0 -21.328125 -12.53125 -31.59375q-12.53125 -10.28125 -32.0 -10.28125q-7.46875 0 -12.265625 2.546875q-4.796875 2.53125 -4.796875 8.65625l0 127.203125q0 9.59375 4.0 15.46875q4.0 5.859375 13.859375 7.71875q4.53125 0.8125 6.65625 1.875q2.140625 1.0625 2.140625 2.9375q0 1.59375 -2.140625 2.2500153q-2.125 0.671875 -5.578125 0.671875q-7.203125 0 -11.078125 -0.53125q-3.859375 -0.53125 -6.9375 -0.92189026q-3.0625 -0.40625 -8.125 -0.40625q-6.671875 0 -11.875 0.40625q-5.1875 0.39064026 -10.390625 0.92189026q-5.203125 0.53125 -12.40625 0.53125z" fill-rule="nonzero"/><path fill="#000000" fill-opacity="0.0" d="m211.33333 -66.61942l160.44096 0l0 275.84253l-160.44096 0z" fill-rule="evenodd"/><path fill="#073763" d="m307.06772 193.91183q-1.875 0 -2.9375 -2.265625q-1.0625 -2.2656403 -2.140625 -4.9375153l-63.98439 -145.0625q-2.9375 -6.390625 -7.078125 -10.78125q-4.125 -4.40625 -11.59375 -6.546875q-3.203125 -1.0625 -5.609375 -2.265625q-2.390625 -1.203125 -2.390625 -3.328125q0 -1.875 2.265625 -2.796875q2.265625 -0.9375 4.9375 -0.9375q7.46875 0 15.859375 0.53125q8.40625 0.53125 15.609375 0.53125q8.000015 0 15.718765 -0.53125q7.734375 -0.53125 14.40625 -0.53125q3.46875 0 5.734375 0.9375q2.265625 0.921875 2.265625 2.796875q0 2.125 -2.265625 3.328125q-2.265625 1.203125 -6.53125 2.265625q-3.734375 0.796875 -4.671875 3.0625q-0.9375 2.265625 -0.9375 5.203125q0 2.40625 0.796875 5.34375q0.8125 2.921875 0.8125 3.71875q5.59375 13.609375 10.796875 25.875q5.203125 12.265625 10.265625 24.265625q5.0625 12.0 10.390625 24.265625q5.34375 12.265633 10.9375 25.859383q1.34375 2.9375 2.265625 2.9375q0.9375 0 2.0 -2.671875l16.8125 -35.453133q0.796875 -1.875 1.1875 -3.203125q0.40625 -1.34375 0.40625 -2.40625q0 -1.328125 -0.40625 -2.65625q-0.390625 -1.34375 -1.1875 -3.203125l-23.46875 -51.734375q-2.9375 -7.203125 -8.9375 -12.125q-6.0 -4.9375 -13.46875 -7.078125q-3.203125 -1.0625 -5.203125 -2.265625q-2.0 -1.203125 -2.0 -3.328125q0 -1.875 1.859375 -2.796875q1.875 -0.9375 4.28125 -0.9375q5.0625 0 10.921875 0.265625q5.875 0.265625 11.875 0.53125q6.0 0.265625 10.796875 0.265625q7.203125 0 14.40625 -0.390625q7.203125 -0.40625 13.859375 -0.40625q3.734375 0 6.0 0.796875q2.265625 0.796875 2.265625 2.671875q0 1.59375 -1.609375 2.796875q-1.59375 1.203125 -4.125 2.40625q-2.53125 1.1875 -4.125 3.0625q-3.203125 0.796875 -3.609375 2.796875q-0.390625 2.0 0.40625 4.140625q0.796875 2.125 2.390625 6.390625q1.609375 4.265625 3.46875 9.203125q1.875 4.9375 3.734375 9.46875q1.875 4.53125 2.9375 6.921875q1.609375 3.46875 2.53125 3.078125q0.9375 -0.40625 2.265625 -3.078125q1.875 -4.0 4.140625 -10.125q2.265625 -6.140625 4.265625 -11.859375q2.0 -5.734375 3.0625 -8.40625q0.796875 -1.875 0.796875 -4.0q0 -3.734375 -2.9375 -5.46875q-2.921875 -1.734375 -6.0 -3.203125q-3.0625 -1.46875 -3.0625 -3.859375q0 -1.875 1.328125 -2.796875q1.34375 -0.9375 5.34375 -0.9375q6.671875 0 8.9375 0.40625q2.265625 0.390625 6.0 0.390625q4.265625 -0.265625 8.0 -0.65625q3.734375 -0.40625 10.390625 -0.40625q3.203125 0 5.46875 0.796875q2.265625 0.796875 2.265625 2.9375q0 2.390625 -2.140625 3.46875q-2.125 1.0625 -5.59375 1.859375q-8.265625 2.140625 -11.734375 5.875q-3.453125 3.71875 -6.65625 9.59375q-2.40625 4.265625 -5.34375 10.40625q-2.921875 6.125 -6.0 12.796875q-3.0625 6.65625 -5.453125 12.53125q-1.34375 2.65625 -1.484375 6.0q-0.125 3.328125 1.21875 6.265625l22.65625 54.921883q0.796875 2.140625 1.734375 1.484375q0.9375 -0.671875 1.46875 -2.28125q8.796875 -21.062508 18.265625 -46.656258q9.46875 -25.609375 17.734375 -49.609375q1.859375 -5.0625 2.265625 -7.59375q0.40625 -2.53125 0.40625 -4.40625q-0.28125 -3.1875 -2.015625 -5.59375q-1.71875 -2.40625 -5.71875 -3.46875q-2.671875 -0.53125 -5.609375 -2.0q-2.9375 -1.46875 -2.9375 -3.59375q0 -1.875 2.40625 -2.671875q2.40625 -0.796875 5.328125 -0.796875q7.203125 0 10.9375 0.40625q3.734375 0.390625 8.0 0.125q5.0625 0 10.125 -0.53125q5.078125 -0.53125 11.734375 -0.53125q3.734375 0 6.140625 0.796875q2.40625 0.796875 2.40625 2.9375q0 2.390625 -2.546875 3.46875q-2.53125 1.0625 -6.0 1.859375q-5.59375 1.328125 -9.59375 4.671875q-4.0 3.328125 -6.53125 7.328125q-2.53125 4.0 -4.140625 8.265625l-57.0625 143.46875q-0.796875 2.1250153 -2.140625 3.8593903q-1.328125 1.734375 -2.921875 1.734375q-1.859375 0 -3.328125 -1.46875q-1.46875 -1.46875 -2.53125 -3.5937653q-4.265625 -9.875 -8.8125 -19.875q-4.53125 -10.0 -9.734375 -22.53125q-5.1875 -12.53125 -12.390625 -28.531258q-0.796875 -1.859375 -1.734375 -1.59375q-0.9375 0.265625 -1.734375 2.390625q-5.59375 12.000008 -10.9375 23.078133q-5.328125 11.0625 -10.53125 22.265625q-5.1875 11.1875 -10.796875 23.453125q-1.0625 2.671875 -2.53125 4.9375153q-1.46875 2.265625 -3.328125 2.265625z" fill-rule="nonzero"/></g></svg>